<svg xmlns="http://www.w3.org/2000/svg" xmlns:xlink="http://www.w3.org/1999/xlink" xmlns:lucid="lucid" width="2200.5" height="1497.33"><g transform="translate(-99.5 440)" lucid:page-tab-id="0_0"><path d="M100.5 280h82.12M100.5 280h-.5" stroke="#3a414a" fill="none"/><path d="M197.38 280l-14.26 4.63v-9.26z" stroke="#3a414a" fill="#3a414a"/><path d="M280 280c0 22.1-17.9 40-40 40s-40-17.9-40-40 17.9-40 40-40 40 17.9 40 40z" stroke="#3a414a" stroke-width="2" fill="#fff"/><use xlink:href="#a" transform="matrix(1,0,0,1,205,245) translate(21.419753086419753 39.65277777777778)"/><path d="M281.5 280h301.1" stroke="#3a414a" fill="none"/><path d="M281.5 280.48h-.53l.03-.47-.02-.48h.53z" stroke="#3a414a" stroke-width=".05" fill="#3a414a"/><path d="M597.38 280l-14.26 4.63v-9.26z" stroke="#3a414a" fill="#3a414a"/><use xlink:href="#b" transform="matrix(1,0,0,1,375.6997557950693,254.66666666666666) translate(0 14.222222222222223)"/><use xlink:href="#c" transform="matrix(1,0,0,1,375.6997557950693,254.66666666666666) translate(58.17283950617285 14.222222222222223)"/><use xlink:href="#d" transform="matrix(1,0,0,1,375.6997557950693,254.66666666666666) translate(73.4814814814815 14.222222222222223)"/><path d="M680 280c0 22.1-17.9 40-40 40s-40-17.9-40-40 17.9-40 40-40 40 17.9 40 40z" stroke="#3a414a" stroke-width="2" fill="#fff"/><use xlink:href="#e" transform="matrix(1,0,0,1,605,245) translate(21.419753086419753 39.65277777777778)"/><path d="M1040 280c0 22.1-17.9 40-40 40s-40-17.9-40-40 17.9-40 40-40 40 17.9 40 40z" stroke="#3a414a" stroke-width="2" fill="#fff"/><use xlink:href="#f" transform="matrix(1,0,0,1,965,245.00000000000006) translate(21.419753086419753 39.65277777777778)"/><path d="M681.5 280h261.1" stroke="#3a414a" fill="none"/><path d="M681.5 280.48h-.53l.03-.47-.02-.48h.53z" stroke="#3a414a" stroke-width=".05" fill="#3a414a"/><path d="M957.38 280l-14.26 4.63v-9.26z" stroke="#3a414a" fill="#3a414a"/><path d="M520 326a6 6 0 0 1 6-6h228a6 6 0 0 1 6 6v48a6 6 0 0 1-6 6H526a6 6 0 0 1-6-6z" fill="none"/><use xlink:href="#g" transform="matrix(1,0,0,1,520,320) translate(41.48148148148148 17.77777777777778)"/><use xlink:href="#h" transform="matrix(1,0,0,1,520,320) translate(158.64197530864197 17.77777777777778)"/><use xlink:href="#i" transform="matrix(1,0,0,1,520,320) translate(177.77777777777777 17.77777777777778)"/><use xlink:href="#j" transform="matrix(1,0,0,1,520,320) translate(60 44.44444444444444)"/><use xlink:href="#h" transform="matrix(1,0,0,1,520,320) translate(140.12345679012344 44.44444444444444)"/><use xlink:href="#i" transform="matrix(1,0,0,1,520,320) translate(159.25925925925924 44.44444444444444)"/><use xlink:href="#k" transform="matrix(1,0,0,1,520,320) translate(48.30246913580248 71.11111111111111)"/><use xlink:href="#h" transform="matrix(1,0,0,1,520,320) translate(132.19135802469137 71.11111111111111)"/><use xlink:href="#l" transform="matrix(1,0,0,1,520,320) translate(151.32716049382717 71.11111111111111)"/><use xlink:href="#m" transform="matrix(1,0,0,1,520,320) translate(60 97.77777777777777)"/><use xlink:href="#h" transform="matrix(1,0,0,1,520,320) translate(140.12345679012344 97.77777777777777)"/><use xlink:href="#i" transform="matrix(1,0,0,1,520,320) translate(159.25925925925924 97.77777777777777)"/><use xlink:href="#n" transform="matrix(1,0,0,1,520,320) translate(71.08024691358025 124.44444444444446)"/><use xlink:href="#h" transform="matrix(1,0,0,1,520,320) translate(129.04320987654322 124.44444444444446)"/><use xlink:href="#o" transform="matrix(1,0,0,1,520,320) translate(148.179012345679 124.44444444444446)"/><path d="M880 326a6 6 0 0 1 6-6h228a6 6 0 0 1 6 6v48a6 6 0 0 1-6 6H886a6 6 0 0 1-6-6z" fill="none"/><use xlink:href="#p" transform="matrix(1,0,0,1,880,320) translate(60 34.44444444444444)"/><use xlink:href="#h" transform="matrix(1,0,0,1,880,320) translate(140.12345679012344 34.44444444444444)"/><use xlink:href="#q" transform="matrix(1,0,0,1,880,320) translate(159.25925925925924 34.44444444444444)"/><path d="M1340 280c0 22.1-17.9 40-40 40s-40-17.9-40-40 17.9-40 40-40 40 17.9 40 40z" stroke="#3a414a" stroke-width="2" fill="#fff"/><use xlink:href="#r" transform="matrix(1,0,0,1,1265,245.00000000000006) translate(21.419753086419753 39.65277777777778)"/><path d="M1041.5 280h201.1" stroke="#3a414a" fill="none"/><path d="M1041.5 280.48h-.53l.03-.47-.02-.48h.53z" stroke="#3a414a" stroke-width=".05" fill="#3a414a"/><path d="M1257.38 280l-14.27 4.63v-9.26z" stroke="#3a414a" fill="#3a414a"/><path d="M1180 326a6 6 0 0 1 6-6h228a6 6 0 0 1 6 6v48a6 6 0 0 1-6 6h-228a6 6 0 0 1-6-6z" fill="none"/><use xlink:href="#s" transform="matrix(1,0,0,1,1180,320) translate(60 34.44444444444444)"/><use xlink:href="#h" transform="matrix(1,0,0,1,1180,320) translate(140.12345679012344 34.44444444444444)"/><use xlink:href="#q" transform="matrix(1,0,0,1,1180,320) translate(159.25925925925924 34.44444444444444)"/><path d="M1660 280c0 22.1-17.9 40-40 40s-40-17.9-40-40 17.9-40 40-40 40 17.9 40 40z" stroke="#3a414a" stroke-width="2" fill="#fff"/><use xlink:href="#t" transform="matrix(1,0,0,1,1585,245.00000000000006) translate(21.419753086419753 39.65277777777778)"/><path d="M1341.5 280h221.12" stroke="#3a414a" fill="none"/><path d="M1341.5 280.48h-.53l.03-.47-.02-.48h.53z" stroke="#3a414a" stroke-width=".05" fill="#3a414a"/><path d="M1577.38 280l-14.27 4.63.02-9.26z" stroke="#3a414a" fill="#3a414a"/><path d="M1620 321.5l.12 3.7.3 3.8.5 3.5.65 3.28.8 3.1.93 2.94 1.08 2.86 1.25 2.8 1.42 2.78 1.65 2.8 1.9 2.87 2.25 3 2.7 3.23 3.42 3.64 4.64 4.4 7.84 6.64 28.1 22.6" stroke="#3a414a" stroke-linejoin="round" fill="none"/><path d="M1620 321l.47-.02.02.52-.96.03-.02-.56z" stroke="#3a414a" stroke-width=".05" fill="#3a414a"/><path d="M1690.32 409.52l-13.58-6.36 6.33-6.77z" stroke="#3a414a" fill="#3a414a"/><path d="M1760 440c0 22.1-17.9 40-40 40s-40-17.9-40-40 17.9-40 40-40 40 17.9 40 40z" stroke="#3a414a" stroke-width="2" fill="#fff"/><use xlink:href="#u" transform="matrix(1,0,0,1,1685,405) translate(21.419753086419753 39.65277777777778)"/><path d="M1639.98 243.67l3.54-26.27 2.78-30.1 1.85-37.35 1.95-159.23 1.7-18.36 1.98-14.8 2.24-12.63 2.47-11.15 2.67-10.1 2.9-9.3 3.1-8.67 3.33-8.2 3.57-7.82 3.82-7.54 4.1-7.32 4.4-7.15 4.77-7.03 5.16-6.98 5.6-6.95 6.14-6.96 6.72-7.03 7.4-7.13 8.25-7.3 4.12-3.33" stroke="#3a414a" stroke-linejoin="round" fill="none"/><path d="M1640.45 243.72l-.1.73-.72-.46-.17-.08.05-.33z" stroke="#3a414a" stroke-width=".05" fill="#3a414a"/><path d="M1746.23-194.1l-8.43 12.4-5.68-7.33z" stroke="#3a414a" fill="#3a414a"/><use xlink:href="#v" transform="matrix(1,0,0,1,1558.869394936773,-81.00577112795312) translate(0 14.222222222222223)"/><use xlink:href="#c" transform="matrix(1,0,0,1,1558.869394936773,-81.00577112795312) translate(56.296296296296305 14.222222222222223)"/><use xlink:href="#w" transform="matrix(1,0,0,1,1558.869394936773,-81.00577112795312) translate(71.60493827160495 14.222222222222223)"/><use xlink:href="#x" transform="matrix(1,0,0,1,1558.869394936773,-81.00577112795312) translate(0 35.55555555555556)"/><use xlink:href="#y" transform="matrix(1,0,0,1,1558.869394936773,-81.00577112795312) translate(56.296296296296305 35.55555555555556)"/><use xlink:href="#z" transform="matrix(1,0,0,1,1558.869394936773,-81.00577112795312) translate(71.60493827160495 35.55555555555556)"/><path d="M1820-220c0 22.1-17.9 40-40 40s-40-17.9-40-40 17.9-40 40-40 40 17.9 40 40z" stroke="#3a414a" stroke-width="2" fill="#fff"/><use xlink:href="#A" transform="matrix(1,0,0,1,1745,-255) translate(21.419753086419753 39.65277777777778)"/><path d="M1821.5-220l4.74.1 4.9.32 4.64.48 4.38.65 4.15.8 3.97.92 3.8 1.06 3.65 1.18 3.52 1.32 3.4 1.43 3.3 1.56 3.23 1.7 3.15 1.8 3.08 1.97 3.03 2.1 3 2.27 2.94 2.45 2.93 2.62 2.9 2.85 2.9 3.08 2.88 3.35 2.9 3.64 2.88 3.98 2.9 4.37 2.92 4.8 2.93 5.34 2.96 5.94 2.96 6.66 2.97 7.52 2.97 8.56 2.96 9.83 2.93 11.42 2.85 13.44 2.72 16.1 2.47 19.7 2.07 25.05 1.4 34.24.07 8.02" stroke="#3a414a" stroke-linejoin="round" fill="none"/><path d="M1821.53-220.46l-.02.95-.53-.03.03-.46-.02-.48z" stroke="#3a414a" stroke-width=".05" fill="#3a414a"/><path d="M1939.98 17.38l-4.77-14.22 9.28-.1z" stroke="#3a414a" fill="#3a414a"/><path d="M1980 60c0 22.1-17.9 40-40 40s-40-17.9-40-40 17.9-40 40-40 40 17.9 40 40z" stroke="#3a414a" stroke-width="2" fill="#fff"/><use xlink:href="#B" transform="matrix(1,0,0,1,1905,25) translate(21.419753086419753 39.65277777777778)"/><path d="M1940 36a6 6 0 0 1 6-6h228a6 6 0 0 1 6 6v48a6 6 0 0 1-6 6h-228a6 6 0 0 1-6-6z" fill="none"/><use xlink:href="#p" transform="matrix(1,0,0,1,1940,30) translate(60 34.44444444444444)"/><use xlink:href="#h" transform="matrix(1,0,0,1,1940,30) translate(140.12345679012344 34.44444444444444)"/><use xlink:href="#q" transform="matrix(1,0,0,1,1940,30) translate(159.25925925925924 34.44444444444444)"/><path d="M1660-434a6 6 0 0 1 6-6h228a6 6 0 0 1 6 6v148a6 6 0 0 1-6 6h-228a6 6 0 0 1-6-6z" fill="none"/><use xlink:href="#g" transform="matrix(1,0,0,1,1660,-440) translate(41.48148148148148 17.77777777777778)"/><use xlink:href="#h" transform="matrix(1,0,0,1,1660,-440) translate(158.64197530864197 17.77777777777778)"/><use xlink:href="#i" transform="matrix(1,0,0,1,1660,-440) translate(177.77777777777777 17.77777777777778)"/><use xlink:href="#s" transform="matrix(1,0,0,1,1660,-440) translate(60 44.44444444444444)"/><use xlink:href="#h" transform="matrix(1,0,0,1,1660,-440) translate(140.12345679012344 44.44444444444444)"/><use xlink:href="#i" transform="matrix(1,0,0,1,1660,-440) translate(159.25925925925924 44.44444444444444)"/><use xlink:href="#j" transform="matrix(1,0,0,1,1660,-440) translate(60 71.11111111111111)"/><use xlink:href="#h" transform="matrix(1,0,0,1,1660,-440) translate(140.12345679012344 71.11111111111111)"/><use xlink:href="#i" transform="matrix(1,0,0,1,1660,-440) translate(159.25925925925924 71.11111111111111)"/><use xlink:href="#m" transform="matrix(1,0,0,1,1660,-440) translate(60 97.77777777777777)"/><use xlink:href="#h" transform="matrix(1,0,0,1,1660,-440) translate(140.12345679012344 97.77777777777777)"/><use xlink:href="#i" transform="matrix(1,0,0,1,1660,-440) translate(159.25925925925924 97.77777777777777)"/><use xlink:href="#n" transform="matrix(1,0,0,1,1660,-440) translate(71.08024691358025 124.44444444444446)"/><use xlink:href="#h" transform="matrix(1,0,0,1,1660,-440) translate(129.04320987654322 124.44444444444446)"/><use xlink:href="#i" transform="matrix(1,0,0,1,1660,-440) translate(148.179012345679 124.44444444444446)"/><use xlink:href="#k" transform="matrix(1,0,0,1,1660,-440) translate(48.30246913580248 151.11111111111111)"/><use xlink:href="#h" transform="matrix(1,0,0,1,1660,-440) translate(132.19135802469137 151.11111111111111)"/><use xlink:href="#C" transform="matrix(1,0,0,1,1660,-440) translate(151.32716049382717 151.11111111111111)"/><path d="M1940 101.5l-.1 4.75-.3 4.75-.46 4.34-.6 3.97-.7 3.7-.8 3.4-.88 3.2-.98 3.02-1.05 2.84-1.14 2.7-1.22 2.57-1.3 2.47-1.36 2.37-1.45 2.3-1.55 2.22-1.64 2.15-1.75 2.12-1.87 2.07-2 2.04-2.15 2.02-2.3 2-2.52 2-2.74 1.98-3 2-3.33 2-3.7 2.05-4.2 2.07-4.77 2.13-5.57 2.2-6.62 2.3-8.15 2.46-10.65 2.7-15.66 3.3-99.06 17.34-14.38 3.67-11.66 3.53-9.93 3.45-8.68 3.43-7.75 3.45-7 3.47-6.38 3.52-5.9 3.56-5.47 3.64-4.45 3.23" stroke="#3a414a" stroke-linejoin="round" fill="none"/><path d="M1940 101l.48-.02-.02.55-.94-.02v-.53z" stroke="#3a414a" stroke-width=".05" fill="#3a414a"/><path d="M1651.56 251.46l7.94-12.73 5.96 7.1z" stroke="#3a414a" fill="#3a414a"/><path d="M1661.5 280l19.28.4 18.03 1.14 16.75 1.75 15.83 2.33 15.24 2.9 14.96 3.5 15 4.2 15.52 5.05 16.63 6.2 18.95 7.97 24.45 11.55 136.5 70.8" stroke="#3a414a" stroke-linejoin="round" fill="none"/><path d="M1661.53 279.54l-.02.94h-.53l.03-.47-.02-.48z" stroke="#3a414a" stroke-width=".05" fill="#3a414a"/><path d="M2001.75 404.6l-14.8-2.46 4.27-8.23z" stroke="#3a414a" fill="#3a414a"/><use xlink:href="#D" transform="matrix(1,0,0,1,1884.213477456746,308.2518287208873) translate(0 14.222222222222223)"/><use xlink:href="#E" transform="matrix(1,0,0,1,1884.213477456746,308.2518287208873) translate(56.296296296296305 14.222222222222223)"/><use xlink:href="#F" transform="matrix(1,0,0,1,1884.213477456746,308.2518287208873) translate(71.60493827160495 14.222222222222223)"/><use xlink:href="#G" transform="matrix(1,0,0,1,1884.213477456746,308.2518287208873) translate(0 35.55555555555556)"/><use xlink:href="#H" transform="matrix(1,0,0,1,1884.213477456746,308.2518287208873) translate(56.296296296296305 35.55555555555556)"/><use xlink:href="#I" transform="matrix(1,0,0,1,1884.213477456746,308.2518287208873) translate(71.60493827160495 35.55555555555556)"/><path d="M2080 423.25c0 22.1-17.9 40-40 40s-40-17.9-40-40 17.9-40 40-40 40 17.9 40 40z" stroke="#3a414a" stroke-width="2" fill="#fff"/><use xlink:href="#J" transform="matrix(1,0,0,1,2005,388.24956149023166) translate(21.419753086419753 39.65277777777778)"/><path d="M1761.5 440l16.24.35 18.13 1.15 22.3 2.37 80.36 11 12.44.8 10.54.22 9.52-.2 8.93-.56 8.62-.9 8.48-1.26 8.5-1.62 8.63-2.03 8.9-2.48 4.1-1.34" stroke="#3a414a" stroke-linejoin="round" fill="none"/><path d="M1761.53 439.54l-.02.95-.53-.03.03-.46-.02-.48z" stroke="#3a414a" stroke-width=".05" fill="#3a414a"/><path d="M2001.1 440.54l-11.88 9.17-3.12-8.72z" stroke="#3a414a" fill="#3a414a"/><path d="M1580 469.25a6 6 0 0 1 6-6h228a6 6 0 0 1 6 6v48a6 6 0 0 1-6 6h-228a6 6 0 0 1-6-6z" fill="none"/><use xlink:href="#s" transform="matrix(1,0,0,1,1580,463.24956149023166) translate(60 34.44444444444444)"/><use xlink:href="#h" transform="matrix(1,0,0,1,1580,463.24956149023166) translate(140.12345679012344 34.44444444444444)"/><use xlink:href="#q" transform="matrix(1,0,0,1,1580,463.24956149023166) translate(159.25925925925924 34.44444444444444)"/><path d="M2060 346a6 6 0 0 1 6-6h228a6 6 0 0 1 6 6v48a6 6 0 0 1-6 6h-228a6 6 0 0 1-6-6z" fill="none"/><g><use xlink:href="#K" transform="matrix(1,0,0,1,2060,340) translate(60 17.77777777777778)"/><use xlink:href="#h" transform="matrix(1,0,0,1,2060,340) translate(140.12345679012344 17.77777777777778)"/><use xlink:href="#i" transform="matrix(1,0,0,1,2060,340) translate(159.25925925925924 17.77777777777778)"/><use xlink:href="#L" transform="matrix(1,0,0,1,2060,340) translate(53.27160493827161 44.44444444444444)"/><use xlink:href="#h" transform="matrix(1,0,0,1,2060,340) translate(146.85185185185185 44.44444444444444)"/><use xlink:href="#M" transform="matrix(1,0,0,1,2060,340) translate(165.98765432098764 44.44444444444444)"/><use xlink:href="#n" transform="matrix(1,0,0,1,2060,340) translate(71.08024691358025 71.11111111111111)"/><use xlink:href="#h" transform="matrix(1,0,0,1,2060,340) translate(129.04320987654322 71.11111111111111)"/><use xlink:href="#i" transform="matrix(1,0,0,1,2060,340) translate(148.179012345679 71.11111111111111)"/><use xlink:href="#m" transform="matrix(1,0,0,1,2060,340) translate(60 97.77777777777777)"/><use xlink:href="#h" transform="matrix(1,0,0,1,2060,340) translate(140.12345679012344 97.77777777777777)"/><use xlink:href="#i" transform="matrix(1,0,0,1,2060,340) translate(159.25925925925924 97.77777777777777)"/><use xlink:href="#N" transform="matrix(1,0,0,1,2060,340) translate(39.660493827160494 124.44444444444446)"/><use xlink:href="#h" transform="matrix(1,0,0,1,2060,340) translate(160.46296296296296 124.44444444444446)"/><use xlink:href="#i" transform="matrix(1,0,0,1,2060,340) translate(179.5987654320988 124.44444444444446)"/><use xlink:href="#g" transform="matrix(1,0,0,1,2060,340) translate(41.48148148148148 151.11111111111111)"/><use xlink:href="#h" transform="matrix(1,0,0,1,2060,340) translate(158.64197530864197 151.11111111111111)"/><use xlink:href="#q" transform="matrix(1,0,0,1,2060,340) translate(177.77777777777777 151.11111111111111)"/></g><path d="M2040 464.75l-.97 50.7-2.05 33.16-2.65 25.4-3.06 20.82-3.38 17.78-3.66 15.6-3.9 13.92-4.1 12.63-4.3 11.6-4.53 10.78-4.73 10.07-4.96 9.5-5.2 9.03-5.47 8.62-5.76 8.28-6.07 8-6.42 7.76-6.82 7.56-7.25 7.4-7.75 7.3-8.32 7.18-8.98 7.1-9.73 7.08-10.6 7.04-.72.43" stroke="#3a414a" stroke-linejoin="round" fill="none"/><path d="M2040 464.25l.47-.02v.55l-.95-.02v-.54z" stroke="#3a414a" stroke-width=".05" fill="#3a414a"/><path d="M1895.93 797.06l9.87-11.3 4.75 7.97z" stroke="#3a414a" fill="#3a414a"/><path d="M1900 820c0 22.1-17.9 40-40 40s-40-17.9-40-40 17.9-40 40-40 40 17.9 40 40z" stroke="#3a414a" stroke-width="2" fill="#fff"/><g><use xlink:href="#O" transform="matrix(1,0,0,1,1825,785) translate(21.419753086419753 39.65277777777778)"/></g><path d="M1840 846a6 6 0 0 1 6-6h228a6 6 0 0 1 6 6v48a6 6 0 0 1-6 6h-228a6 6 0 0 1-6-6z" fill="none"/><g><use xlink:href="#k" transform="matrix(1,0,0,1,1840,840) translate(49.13580246913581 21.111111111111114)"/><use xlink:href="#h" transform="matrix(1,0,0,1,1840,840) translate(133.0246913580247 21.111111111111114)"/><use xlink:href="#P" transform="matrix(1,0,0,1,1840,840) translate(152.1604938271605 21.111111111111114)"/><use xlink:href="#j" transform="matrix(1,0,0,1,1840,840) translate(60 47.777777777777786)"/><use xlink:href="#h" transform="matrix(1,0,0,1,1840,840) translate(140.12345679012344 47.777777777777786)"/><use xlink:href="#q" transform="matrix(1,0,0,1,1840,840) translate(159.25925925925924 47.777777777777786)"/></g><path d="M1822.48 837.76l-172.97 70.66-25.78 8.45-22.4 6.3-21.05 4.98-20.84 4-21.42 3.2-22.74 2.43-24.9 1.6-12.98.28" stroke="#3a414a" stroke-linejoin="round" fill="none"/><path d="M1822.98 837.66l.2.33-.53.2-.36-.88.47-.2z" stroke="#3a414a" stroke-width=".05" fill="#3a414a"/><path d="M1462.62 939.97l14.17-4.93.18 9.27z" stroke="#3a414a" fill="#3a414a"/><path d="M1460 940c0 22.1-17.9 40-40 40s-40-17.9-40-40 17.9-40 40-40 40 17.9 40 40z" stroke="#3a414a" stroke-width="2" fill="#fff"/><g><use xlink:href="#Q" transform="matrix(1,0,0,1,1385,905) translate(15.246913580246915 39.65277777777778)"/></g><path d="M1300 986a6 6 0 0 1 6-6h228a6 6 0 0 1 6 6v48a6 6 0 0 1-6 6h-228a6 6 0 0 1-6-6z" fill="none"/><g><use xlink:href="#L" transform="matrix(1,0,0,1,1300,980) translate(53.27160493827161 17.77777777777778)"/><use xlink:href="#h" transform="matrix(1,0,0,1,1300,980) translate(146.85185185185185 17.77777777777778)"/><use xlink:href="#i" transform="matrix(1,0,0,1,1300,980) translate(165.98765432098764 17.77777777777778)"/><use xlink:href="#g" transform="matrix(1,0,0,1,1300,980) translate(41.48148148148148 44.44444444444444)"/><use xlink:href="#h" transform="matrix(1,0,0,1,1300,980) translate(158.64197530864197 44.44444444444444)"/><use xlink:href="#i" transform="matrix(1,0,0,1,1300,980) translate(177.77777777777777 44.44444444444444)"/><use xlink:href="#N" transform="matrix(1,0,0,1,1300,980) translate(39.660493827160494 71.11111111111111)"/><use xlink:href="#h" transform="matrix(1,0,0,1,1300,980) translate(160.46296296296296 71.11111111111111)"/><use xlink:href="#q" transform="matrix(1,0,0,1,1300,980) translate(179.5987654320988 71.11111111111111)"/></g><path d="M1378.5 940l-10.8-.23-10.2-.64-9.35-.98-8.74-1.3-8.28-1.57-8-1.88-7.87-2.2-7.88-2.56-8.1-3-8.53-3.6-9.4-4.43-11.1-5.8-15.14-8.78-47.84-30.52" stroke="#3a414a" stroke-linejoin="round" fill="none"/><path d="M1379.03 939.53l-.03.46.02.48-.55-.02.02-.95z" stroke="#3a414a" stroke-width=".05" fill="#3a414a"/><path d="M1194.8 864.56l14.53 3.77-5 7.8z" stroke="#3a414a" fill="#3a414a"/><path d="M1200 840c0 22.1-17.9 40-40 40s-40-17.9-40-40 17.9-40 40-40 40 17.9 40 40z" stroke="#3a414a" stroke-width="2" fill="#fff"/><g><use xlink:href="#R" transform="matrix(1,0,0,1,1125,805) translate(16.080246913580247 39.65277777777778)"/></g><path d="M920 826a6 6 0 0 1 6-6h228a6 6 0 0 1 6 6v48a6 6 0 0 1-6 6H926a6 6 0 0 1-6-6z" fill="none"/><g><use xlink:href="#k" transform="matrix(1,0,0,1,920,820) translate(49.13580246913581 17.77777777777778)"/><use xlink:href="#h" transform="matrix(1,0,0,1,920,820) translate(133.0246913580247 17.77777777777778)"/><use xlink:href="#P" transform="matrix(1,0,0,1,920,820) translate(152.1604938271605 17.77777777777778)"/><use xlink:href="#j" transform="matrix(1,0,0,1,920,820) translate(60 44.44444444444444)"/><use xlink:href="#h" transform="matrix(1,0,0,1,920,820) translate(140.12345679012344 44.44444444444444)"/><use xlink:href="#i" transform="matrix(1,0,0,1,920,820) translate(159.25925925925924 44.44444444444444)"/><use xlink:href="#g" transform="matrix(1,0,0,1,920,820) translate(41.48148148148148 71.11111111111111)"/><use xlink:href="#h" transform="matrix(1,0,0,1,920,820) translate(158.64197530864197 71.11111111111111)"/><use xlink:href="#q" transform="matrix(1,0,0,1,920,820) translate(177.77777777777777 71.11111111111111)"/></g><path d="M1160 798.5V697.38" stroke="#3a414a" stroke-linejoin="round" fill="none"/><path d="M1160.47 799.03l-.46-.03-.47.02v-.53h.94z" stroke="#3a414a" stroke-width=".05" fill="#3a414a"/><path d="M1160 682.62l4.63 14.26h-9.27z" stroke="#3a414a" fill="#3a414a"/><path d="M1200 640c0 22.1-17.9 40-40 40s-40-17.9-40-40 17.9-40 40-40 40 17.9 40 40z" stroke="#3a414a" stroke-width="2" fill="#fff"/><g><use xlink:href="#S" transform="matrix(1,0,0,1,1125,605) translate(15.246913580246915 39.65277777777778)"/></g><path d="M920 606a6 6 0 0 1 6-6h228a6 6 0 0 1 6 6v48a6 6 0 0 1-6 6H926a6 6 0 0 1-6-6z" fill="none"/><g><use xlink:href="#p" transform="matrix(1,0,0,1,920,600) translate(60 34.44444444444444)"/><use xlink:href="#h" transform="matrix(1,0,0,1,920,600) translate(140.12345679012344 34.44444444444444)"/><use xlink:href="#q" transform="matrix(1,0,0,1,920,600) translate(159.25925925925924 34.44444444444444)"/></g><path d="M1160.23 598.55l5.3-10.62 5.6-10.1 5.7-9.35 5.8-8.67 5.96-8.12 6.1-7.66 6.34-7.3 6.6-6.96 6.9-6.72 7.3-6.54 7.82-6.4 8.44-6.36 9.25-6.38 10.33-6.5 11.87-6.8 14.2-7.35 18.35-8.52 29.14-12.05 114.22-44.57 26.28-12.24 22.23-11.5 20.02-11.47 18.63-11.74 17.73-12.22 17.14-12.9 16.76-13.78.83-.73" stroke="#3a414a" stroke-linejoin="round" fill="none"/><path d="M1160.66 598.75l-.14.28-.5-.03-.56.02.35-.7z" stroke="#3a414a" stroke-width=".05" fill="#3a414a"/><path d="M1596.14 315.17l-7.6 12.93-6.15-6.93z" stroke="#3a414a" fill="#3a414a"/><path d="M1597.7 245.03l-4.27-19.6-4.87-18.54-5.3-17.25-5.72-16.16-6.13-15.25-6.53-14.5-6.98-13.86-7.45-13.37-7.94-12.95-8.5-12.66-9.15-12.46-9.9-12.36-10.8-12.37-11.9-12.52L1479 28.4l-15-13.34-17.35-14.2-20.8-15.6-26.4-18.1-38.2-23.87-223.84-130.2-37.72-25.88-31.98-24-18.23-14.9" stroke="#3a414a" stroke-linejoin="round" fill="none"/><path d="M1598.24 245.27l-.36.2-.5.36-.15-.7.93-.22z" stroke="#3a414a" stroke-width=".05" fill="#3a414a"/><path d="M1038.08-261.1l13.95 5.5-5.9 7.15z" stroke="#3a414a" fill="#3a414a"/><g><use xlink:href="#T" transform="matrix(1,0,0,1,1293.1057082988893,-115.20232166862039) translate(0 14.222222222222223)"/><use xlink:href="#c" transform="matrix(1,0,0,1,1293.1057082988893,-115.20232166862039) translate(49.38271604938272 14.222222222222223)"/><use xlink:href="#z" transform="matrix(1,0,0,1,1293.1057082988893,-115.20232166862039) translate(64.69135802469137 14.222222222222223)"/></g><path d="M1040-280c0 22.1-17.9 40-40 40s-40-17.9-40-40 17.9-40 40-40 40 17.9 40 40z" stroke="#3a414a" stroke-width="2" fill="#fff"/><g><use xlink:href="#U" transform="matrix(1,0,0,1,965,-315) translate(15.246913580246915 39.65277777777778)"/></g><path d="M640 238.5l.37-17.53 1.05-16.75 1.65-15.72 2.2-14.87 2.7-14.16 3.18-13.6 3.68-13.15L659 119.9l4.68-12.6 5.25-12.5 5.87-12.47 6.6-12.6 7.43-12.88 8.46-13.32 9.75-14.03 11.48-15.12L732.5-2.48l17.94-19.9L776.62-49l159.05-151.8 26.15-29 3.67-4.37" stroke="#3a414a" stroke-linejoin="round" fill="none"/><path d="M640.5 238.5l-.03.53-.46-.03-.48.02.02-.55z" stroke="#3a414a" stroke-width=".05" fill="#3a414a"/><path d="M975-245.5l-5.64 13.9-7.1-5.95z" stroke="#3a414a" fill="#3a414a"/><g><use xlink:href="#T" transform="matrix(1,0,0,1,767.7185337212769,-40.39107324877462) translate(0 14.222222222222223)"/><use xlink:href="#c" transform="matrix(1,0,0,1,767.7185337212769,-40.39107324877462) translate(49.38271604938272 14.222222222222223)"/><use xlink:href="#z" transform="matrix(1,0,0,1,767.7185337212769,-40.39107324877462) translate(64.69135802469137 14.222222222222223)"/></g><path d="M958.5-280l-47.52 1L863.6-276l-46.16 4.85-44.48 6.56-42.42 8.08-40.12 9.4-37.68 10.52-35.2 11.43L584.8-213l-30.38 12.76-28.1 13.22-26 13.58-24 13.85-22.16 14.07-20.47 14.22-18.9 14.33-17.48 14.45-16.15 14.54-14.94 14.62-13.8 14.7-12.8 14.8-11.8 14.92-10.94 15.03-10.1 15.17-9.28 15.35-8.55 15.54-7.83 15.77L274 63.97l-6.47 16.34-5.8 16.7-5.17 17.1-4.5 17.52-3.83 18.03-3.15 18.6-2.43 19.26-1.67 20-.63 15.12" stroke="#3a414a" stroke-linejoin="round" fill="none"/><path d="M959-280l.02.48h-.53l-.03-.94.56-.02z" stroke="#3a414a" stroke-width=".05" fill="#3a414a"/><path d="M240.03 237.38l-4.33-14.36 9.27.2z" stroke="#3a414a" fill="#3a414a"/><g><use xlink:href="#V" transform="matrix(1,0,0,1,637.8911294703894,-275.5778996262032) translate(0 14.222222222222223)"/><use xlink:href="#E" transform="matrix(1,0,0,1,637.8911294703894,-275.5778996262032) translate(58.17283950617285 14.222222222222223)"/><use xlink:href="#I" transform="matrix(1,0,0,1,637.8911294703894,-275.5778996262032) translate(73.4814814814815 14.222222222222223)"/></g><path d="M980-314a6 6 0 0 1 6-6h228a6 6 0 0 1 6 6v48a6 6 0 0 1-6 6H986a6 6 0 0 1-6-6z" fill="none"/><g><use xlink:href="#W" transform="matrix(1,0,0,1,980,-320) translate(59.93827160493828 34.44444444444444)"/><use xlink:href="#h" transform="matrix(1,0,0,1,980,-320) translate(140.1851851851852 34.44444444444444)"/><use xlink:href="#q" transform="matrix(1,0,0,1,980,-320) translate(159.320987654321 34.44444444444444)"/></g><defs><path d="M185-189c-5-48-123-54-124 2 14 75 158 14 163 119 3 78-121 87-175 55-17-10-28-26-33-46l33-7c5 56 141 63 141-1 0-78-155-14-162-118-5-82 145-84 179-34 5 7 8 16 11 25" id="X"/><path d="M101-251c68 0 85 55 85 127S166 4 100 4C33 4 14-52 14-124c0-73 17-127 87-127zm-1 229c47 0 54-49 54-102s-4-102-53-102c-51 0-55 48-55 102 0 53 5 102 54 102" id="Y"/><g id="a"><use transform="matrix(0.06172839506172839,0,0,0.06172839506172839,0,0)" xlink:href="#X"/><use transform="matrix(0.06172839506172839,0,0,0.06172839506172839,14.814814814814813,0)" xlink:href="#Y"/></g><path fill="#333" d="M25-224v-37h50v37H25zM25 0v-190h50V0H25" id="Z"/><path fill="#333" d="M-4 44V30h207v14H-4" id="aa"/><path fill="#333" d="M137-138c1-29-70-34-71-4 15 46 118 7 119 86 1 83-164 76-172 9l43-7c4 19 20 25 44 25 33 8 57-30 24-41C81-84 22-81 20-136c-2-80 154-74 161-7" id="ab"/><path fill="#333" d="M115-3C79 11 28 4 28-45v-112H4v-33h27l15-45h31v45h36v33H77v99c-1 23 16 31 38 25v30" id="ac"/><path fill="#333" d="M133-34C117-15 103 5 69 4 32 3 11-16 11-54c-1-60 55-63 116-61 1-26-3-47-28-47-18 1-26 9-28 27l-52-2c7-38 36-58 82-57s74 22 75 68l1 82c-1 14 12 18 25 15v27c-30 8-71 5-69-32zm-48 3c29 0 43-24 42-57-32 0-66-3-65 30 0 17 8 27 23 27" id="ad"/><path fill="#333" d="M135-150c-39-12-60 13-60 57V0H25l-1-190h47c2 13-1 29 3 40 6-28 27-53 61-41v41" id="ae"/><g id="b"><use transform="matrix(0.04938271604938272,0,0,0.04938271604938272,0,0)" xlink:href="#Z"/><use transform="matrix(0.04938271604938272,0,0,0.04938271604938272,4.938271604938272,0)" xlink:href="#aa"/><use transform="matrix(0.04938271604938272,0,0,0.04938271604938272,14.814814814814817,0)" xlink:href="#ab"/><use transform="matrix(0.04938271604938272,0,0,0.04938271604938272,24.69135802469136,0)" xlink:href="#ac"/><use transform="matrix(0.04938271604938272,0,0,0.04938271604938272,30.567901234567906,0)" xlink:href="#ad"/><use transform="matrix(0.04938271604938272,0,0,0.04938271604938272,40.44444444444445,0)" xlink:href="#ae"/><use transform="matrix(0.04938271604938272,0,0,0.04938271604938272,47.35802469135803,0)" xlink:href="#ac"/></g><path fill="#333" d="M15-148v-39h180v39H15zm0 97v-39h180v39H15" id="af"/><use transform="matrix(0.04938271604938272,0,0,0.04938271604938272,0,0)" xlink:href="#af" id="c"/><path fill="#333" d="M62-158H24l-5-90h48" id="ag"/><path fill="#333" d="M101-251c68 0 84 54 84 127C185-50 166 4 99 4S15-52 14-124c-1-75 17-127 87-127zm-1 216c37-5 36-46 36-89s4-89-36-89c-39 0-36 45-36 89 0 43-3 85 36 89" id="ah"/><g id="d"><use transform="matrix(0.04938271604938272,0,0,0.04938271604938272,0,0)" xlink:href="#ag"/><use transform="matrix(0.04938271604938272,0,0,0.04938271604938272,4.197530864197531,0)" xlink:href="#ah"/><use transform="matrix(0.04938271604938272,0,0,0.04938271604938272,14.074074074074074,0)" xlink:href="#ag"/></g><path d="M27 0v-27h64v-190l-56 39v-29l58-41h29v221h61V0H27" id="ai"/><g id="e"><use transform="matrix(0.06172839506172839,0,0,0.06172839506172839,0,0)" xlink:href="#X"/><use transform="matrix(0.06172839506172839,0,0,0.06172839506172839,14.814814814814813,0)" xlink:href="#ai"/></g><path d="M101-251c82-7 93 87 43 132L82-64C71-53 59-42 53-27h129V0H18c2-99 128-94 128-182 0-28-16-43-45-43s-46 15-49 41l-32-3c6-41 34-60 81-64" id="aj"/><g id="f"><use transform="matrix(0.06172839506172839,0,0,0.06172839506172839,0,0)" xlink:href="#X"/><use transform="matrix(0.06172839506172839,0,0,0.06172839506172839,14.814814814814813,0)" xlink:href="#aj"/></g><path d="M100-194c62-1 85 37 85 99 1 63-27 99-86 99S16-35 15-95c0-66 28-99 85-99zM99-20c44 1 53-31 53-75 0-43-8-75-51-75s-53 32-53 75 10 74 51 75" id="ak"/><path d="M-5 72V49h209v23H-5" id="al"/><path d="M210-169c-67 3-38 105-44 169h-31v-121c0-29-5-50-35-48C34-165 62-65 56 0H25l-1-190h30c1 10-1 24 2 32 10-44 99-50 107 0 11-21 27-35 58-36 85-2 47 119 55 194h-31v-121c0-29-5-49-35-48" id="am"/><path d="M100-194c63 0 86 42 84 106H49c0 40 14 67 53 68 26 1 43-12 49-29l28 8c-11 28-37 45-77 45C44 4 14-33 15-96c1-61 26-98 85-98zm52 81c6-60-76-77-97-28-3 7-6 17-6 28h103" id="an"/><path d="M117-194c89-4 53 116 60 194h-32v-121c0-31-8-49-39-48C34-167 62-67 57 0H25l-1-190h30c1 10-1 24 2 32 11-22 29-35 61-36" id="ao"/><g id="g"><use transform="matrix(0.06172839506172839,0,0,0.06172839506172839,0,0)" xlink:href="#ak"/><use transform="matrix(0.06172839506172839,0,0,0.06172839506172839,12.345679012345679,0)" xlink:href="#al"/><use transform="matrix(0.06172839506172839,0,0,0.06172839506172839,24.691358024691358,0)" xlink:href="#am"/><use transform="matrix(0.06172839506172839,0,0,0.06172839506172839,43.148148148148145,0)" xlink:href="#an"/><use transform="matrix(0.06172839506172839,0,0,0.06172839506172839,55.49382716049382,0)" xlink:href="#am"/><use transform="matrix(0.06172839506172839,0,0,0.06172839506172839,73.9506172839506,0)" xlink:href="#al"/><use transform="matrix(0.06172839506172839,0,0,0.06172839506172839,86.29629629629629,0)" xlink:href="#an"/><use transform="matrix(0.06172839506172839,0,0,0.06172839506172839,98.64197530864197,0)" xlink:href="#ao"/></g><path d="M18-150v-26h174v26H18zm0 90v-26h174v26H18" id="ap"/><use transform="matrix(0.06172839506172839,0,0,0.06172839506172839,0,0)" xlink:href="#ap" id="h"/><path d="M47-170H22l-4-78h33" id="aq"/><g id="i"><use transform="matrix(0.06172839506172839,0,0,0.06172839506172839,0,0)" xlink:href="#aq"/><use transform="matrix(0.06172839506172839,0,0,0.06172839506172839,4.197530864197531,0)" xlink:href="#ai"/><use transform="matrix(0.06172839506172839,0,0,0.06172839506172839,16.54320987654321,0)" xlink:href="#aq"/></g><path d="M114-163C36-179 61-72 57 0H25l-1-190h30c1 12-1 29 2 39 6-27 23-49 58-41v29" id="ar"/><path d="M54-142c48-35 137-8 131 61C196 18 31 33 14-55l32-4c7 23 22 37 52 37 35-1 51-22 54-58 4-55-73-65-99-34H22l8-134h141v27H59" id="as"/><path d="M24 0v-261h32V0H24" id="at"/><path d="M141-36C126-15 110 5 73 4 37 3 15-17 15-53c-1-64 63-63 125-63 3-35-9-54-41-54-24 1-41 7-42 31l-33-3c5-37 33-52 76-52 45 0 72 20 72 64v82c-1 20 7 32 28 27v20c-31 9-61-2-59-35zM48-53c0 20 12 33 32 33 41-3 63-29 60-74-43 2-92-5-92 41" id="au"/><path d="M85-194c31 0 48 13 60 33l-1-100h32l1 261h-30c-2-10 0-23-3-31C134-8 116 4 85 4 32 4 16-35 15-94c0-66 23-100 70-100zm9 24c-40 0-46 34-46 75 0 40 6 74 45 74 42 0 51-32 51-76 0-42-9-74-50-73" id="av"/><g id="j"><use transform="matrix(0.06172839506172839,0,0,0.06172839506172839,0,0)" xlink:href="#ar"/><use transform="matrix(0.06172839506172839,0,0,0.06172839506172839,7.345679012345679,0)" xlink:href="#as"/><use transform="matrix(0.06172839506172839,0,0,0.06172839506172839,19.691358024691358,0)" xlink:href="#al"/><use transform="matrix(0.06172839506172839,0,0,0.06172839506172839,32.03703703703704,0)" xlink:href="#at"/><use transform="matrix(0.06172839506172839,0,0,0.06172839506172839,36.91358024691358,0)" xlink:href="#ak"/><use transform="matrix(0.06172839506172839,0,0,0.06172839506172839,49.25925925925926,0)" xlink:href="#au"/><use transform="matrix(0.06172839506172839,0,0,0.06172839506172839,61.60493827160494,0)" xlink:href="#av"/></g><path d="M135-143c-3-34-86-38-87 0 15 53 115 12 119 90S17 21 10-45l28-5c4 36 97 45 98 0-10-56-113-15-118-90-4-57 82-63 122-42 12 7 21 19 24 35" id="aw"/><g id="k"><use transform="matrix(0.06172839506172839,0,0,0.06172839506172839,0,0)" xlink:href="#au"/><use transform="matrix(0.06172839506172839,0,0,0.06172839506172839,12.345679012345679,0)" xlink:href="#av"/><use transform="matrix(0.06172839506172839,0,0,0.06172839506172839,24.691358024691358,0)" xlink:href="#av"/><use transform="matrix(0.06172839506172839,0,0,0.06172839506172839,37.03703703703704,0)" xlink:href="#al"/><use transform="matrix(0.06172839506172839,0,0,0.06172839506172839,49.382716049382715,0)" xlink:href="#aw"/><use transform="matrix(0.06172839506172839,0,0,0.06172839506172839,60.49382716049382,0)" xlink:href="#an"/><use transform="matrix(0.06172839506172839,0,0,0.06172839506172839,72.8395061728395,0)" xlink:href="#at"/></g><path d="M109-170H84l-4-78h32zm-65 0H19l-4-78h33" id="ax"/><g id="l"><use transform="matrix(0.06172839506172839,0,0,0.06172839506172839,0,0)" xlink:href="#ax"/><use transform="matrix(0.06172839506172839,0,0,0.06172839506172839,7.8395061728395055,0)" xlink:href="#Y"/><use transform="matrix(0.06172839506172839,0,0,0.06172839506172839,20.185185185185183,0)" xlink:href="#ai"/><use transform="matrix(0.06172839506172839,0,0,0.06172839506172839,32.53086419753086,0)" xlink:href="#ax"/></g><path d="M155-56V0h-30v-56H8v-25l114-167h33v167h35v25h-35zm-30-156c-27 46-58 90-88 131h88v-131" id="ay"/><g id="m"><use transform="matrix(0.06172839506172839,0,0,0.06172839506172839,0,0)" xlink:href="#ar"/><use transform="matrix(0.06172839506172839,0,0,0.06172839506172839,7.345679012345679,0)" xlink:href="#ay"/><use transform="matrix(0.06172839506172839,0,0,0.06172839506172839,19.691358024691358,0)" xlink:href="#al"/><use transform="matrix(0.06172839506172839,0,0,0.06172839506172839,32.03703703703704,0)" xlink:href="#at"/><use transform="matrix(0.06172839506172839,0,0,0.06172839506172839,36.91358024691358,0)" xlink:href="#ak"/><use transform="matrix(0.06172839506172839,0,0,0.06172839506172839,49.25925925925926,0)" xlink:href="#au"/><use transform="matrix(0.06172839506172839,0,0,0.06172839506172839,61.60493827160494,0)" xlink:href="#av"/></g><path d="M143 0L79-87 56-68V0H24v-261h32v163l83-92h37l-77 82L181 0h-38" id="az"/><g id="n"><use transform="matrix(0.06172839506172839,0,0,0.06172839506172839,0,0)" xlink:href="#az"/><use transform="matrix(0.06172839506172839,0,0,0.06172839506172839,11.11111111111111,0)" xlink:href="#al"/><use transform="matrix(0.06172839506172839,0,0,0.06172839506172839,23.45679012345679,0)" xlink:href="#aw"/><use transform="matrix(0.06172839506172839,0,0,0.06172839506172839,34.5679012345679,0)" xlink:href="#an"/><use transform="matrix(0.06172839506172839,0,0,0.06172839506172839,46.913580246913575,0)" xlink:href="#at"/></g><g id="o"><use transform="matrix(0.06172839506172839,0,0,0.06172839506172839,0,0)" xlink:href="#aq"/><use transform="matrix(0.06172839506172839,0,0,0.06172839506172839,4.197530864197531,0)" xlink:href="#Y"/><use transform="matrix(0.06172839506172839,0,0,0.06172839506172839,16.54320987654321,0)" xlink:href="#aq"/></g><g id="p"><use transform="matrix(0.06172839506172839,0,0,0.06172839506172839,0,0)" xlink:href="#ar"/><use transform="matrix(0.06172839506172839,0,0,0.06172839506172839,7.345679012345679,0)" xlink:href="#ai"/><use transform="matrix(0.06172839506172839,0,0,0.06172839506172839,19.691358024691358,0)" xlink:href="#al"/><use transform="matrix(0.06172839506172839,0,0,0.06172839506172839,32.03703703703704,0)" xlink:href="#at"/><use transform="matrix(0.06172839506172839,0,0,0.06172839506172839,36.91358024691358,0)" xlink:href="#ak"/><use transform="matrix(0.06172839506172839,0,0,0.06172839506172839,49.25925925925926,0)" xlink:href="#au"/><use transform="matrix(0.06172839506172839,0,0,0.06172839506172839,61.60493827160494,0)" xlink:href="#av"/></g><g id="q"><use transform="matrix(0.06172839506172839,0,0,0.06172839506172839,0,0)" xlink:href="#aq"/><use transform="matrix(0.06172839506172839,0,0,0.06172839506172839,4.197530864197531,0)" xlink:href="#ai"/><use transform="matrix(0.06172839506172839,0,0,0.06172839506172839,16.54320987654321,0)" xlink:href="#aq"/></g><path d="M126-127c33 6 58 20 58 59 0 88-139 92-164 29-3-8-5-16-6-25l32-3c6 27 21 44 54 44 32 0 52-15 52-46 0-38-36-46-79-43v-28c39 1 72-4 72-42 0-27-17-43-46-43-28 0-47 15-49 41l-32-3c6-42 35-63 81-64 48-1 79 21 79 65 0 36-21 52-52 59" id="aA"/><g id="r"><use transform="matrix(0.06172839506172839,0,0,0.06172839506172839,0,0)" xlink:href="#X"/><use transform="matrix(0.06172839506172839,0,0,0.06172839506172839,14.814814814814813,0)" xlink:href="#aA"/></g><g id="s"><use transform="matrix(0.06172839506172839,0,0,0.06172839506172839,0,0)" xlink:href="#ar"/><use transform="matrix(0.06172839506172839,0,0,0.06172839506172839,7.345679012345679,0)" xlink:href="#aj"/><use transform="matrix(0.06172839506172839,0,0,0.06172839506172839,19.691358024691358,0)" xlink:href="#al"/><use transform="matrix(0.06172839506172839,0,0,0.06172839506172839,32.03703703703704,0)" xlink:href="#at"/><use transform="matrix(0.06172839506172839,0,0,0.06172839506172839,36.91358024691358,0)" xlink:href="#ak"/><use transform="matrix(0.06172839506172839,0,0,0.06172839506172839,49.25925925925926,0)" xlink:href="#au"/><use transform="matrix(0.06172839506172839,0,0,0.06172839506172839,61.60493827160494,0)" xlink:href="#av"/></g><g id="t"><use transform="matrix(0.06172839506172839,0,0,0.06172839506172839,0,0)" xlink:href="#X"/><use transform="matrix(0.06172839506172839,0,0,0.06172839506172839,14.814814814814813,0)" xlink:href="#ay"/></g><path d="M99-251c64 0 84 50 84 122C183-37 130 33 47-8c-14-7-20-23-25-40l30-5c6 39 69 39 84 7 9-19 16-44 16-74-10 22-31 35-62 35-49 0-73-33-73-83 0-54 28-83 82-83zm-1 141c31-1 51-18 51-49 0-36-14-67-51-67-34 0-49 23-49 58 0 34 15 58 49 58" id="aB"/><g id="u"><use transform="matrix(0.06172839506172839,0,0,0.06172839506172839,0,0)" xlink:href="#X"/><use transform="matrix(0.06172839506172839,0,0,0.06172839506172839,14.814814814814813,0)" xlink:href="#aB"/></g><path fill="#333" d="M23 0v-37h61v-169l-59 37v-38l62-41h46v211h57V0H23" id="aC"/><g id="v"><use transform="matrix(0.04938271604938272,0,0,0.04938271604938272,0,0)" xlink:href="#ae"/><use transform="matrix(0.04938271604938272,0,0,0.04938271604938272,6.913580246913581,0)" xlink:href="#aC"/><use transform="matrix(0.04938271604938272,0,0,0.04938271604938272,16.790123456790127,0)" xlink:href="#aa"/><use transform="matrix(0.04938271604938272,0,0,0.04938271604938272,26.666666666666668,0)" xlink:href="#Z"/><use transform="matrix(0.04938271604938272,0,0,0.04938271604938272,31.60493827160494,0)" xlink:href="#ab"/><use transform="matrix(0.04938271604938272,0,0,0.04938271604938272,41.48148148148149,0)" xlink:href="#ah"/></g><g id="w"><use transform="matrix(0.04938271604938272,0,0,0.04938271604938272,0,0)" xlink:href="#ag"/><use transform="matrix(0.04938271604938272,0,0,0.04938271604938272,4.197530864197531,0)" xlink:href="#aC"/><use transform="matrix(0.04938271604938272,0,0,0.04938271604938272,14.074074074074074,0)" xlink:href="#ag"/></g><path fill="#333" d="M182-182c0 78-84 86-111 141h115V0H12c-6-101 99-100 120-180 1-22-12-31-33-32-23 0-32 14-35 34l-49-3c5-45 32-70 84-70 51 0 83 22 83 69" id="aD"/><g id="x"><use transform="matrix(0.04938271604938272,0,0,0.04938271604938272,0,0)" xlink:href="#ae"/><use transform="matrix(0.04938271604938272,0,0,0.04938271604938272,6.913580246913581,0)" xlink:href="#aD"/><use transform="matrix(0.04938271604938272,0,0,0.04938271604938272,16.790123456790127,0)" xlink:href="#aa"/><use transform="matrix(0.04938271604938272,0,0,0.04938271604938272,26.666666666666668,0)" xlink:href="#Z"/><use transform="matrix(0.04938271604938272,0,0,0.04938271604938272,31.60493827160494,0)" xlink:href="#ab"/><use transform="matrix(0.04938271604938272,0,0,0.04938271604938272,41.48148148148149,0)" xlink:href="#ah"/></g><use transform="matrix(0.04938271604938272,0,0,0.04938271604938272,0,0)" xlink:href="#af" id="y"/><g id="z"><use transform="matrix(0.04938271604938272,0,0,0.04938271604938272,0,0)" xlink:href="#ag"/><use transform="matrix(0.04938271604938272,0,0,0.04938271604938272,4.197530864197531,0)" xlink:href="#aC"/><use transform="matrix(0.04938271604938272,0,0,0.04938271604938272,14.074074074074074,0)" xlink:href="#ag"/></g><g id="A"><use transform="matrix(0.06172839506172839,0,0,0.06172839506172839,0,0)" xlink:href="#X"/><use transform="matrix(0.06172839506172839,0,0,0.06172839506172839,14.814814814814813,0)" xlink:href="#as"/></g><path d="M110-160c48 1 74 30 74 79 0 53-28 85-80 85-65 0-83-55-86-122-5-90 50-162 133-122 14 7 22 21 27 39l-31 6c-5-40-67-38-82-6-9 19-15 44-15 74 11-20 30-34 60-33zm-7 138c34 0 49-23 49-58s-16-56-50-56c-29 0-50 16-49 49 1 36 15 65 50 65" id="aE"/><g id="B"><use transform="matrix(0.06172839506172839,0,0,0.06172839506172839,0,0)" xlink:href="#X"/><use transform="matrix(0.06172839506172839,0,0,0.06172839506172839,14.814814814814813,0)" xlink:href="#aE"/></g><g id="C"><use transform="matrix(0.06172839506172839,0,0,0.06172839506172839,0,0)" xlink:href="#ax"/><use transform="matrix(0.06172839506172839,0,0,0.06172839506172839,7.8395061728395055,0)" xlink:href="#Y"/><use transform="matrix(0.06172839506172839,0,0,0.06172839506172839,20.185185185185183,0)" xlink:href="#Y"/><use transform="matrix(0.06172839506172839,0,0,0.06172839506172839,32.53086419753086,0)" xlink:href="#ax"/></g><path d="M135-150c-39-12-60 13-60 57V0H25l-1-190h47c2 13-1 29 3 40 6-28 27-53 61-41v41" id="aF"/><path d="M23 0v-37h61v-169l-59 37v-38l62-41h46v211h57V0H23" id="aG"/><path d="M-4 44V30h207v14H-4" id="aH"/><path d="M25-224v-37h50v37H25zM25 0v-190h50V0H25" id="aI"/><path d="M137-138c1-29-70-34-71-4 15 46 118 7 119 86 1 83-164 76-172 9l43-7c4 19 20 25 44 25 33 8 57-30 24-41C81-84 22-81 20-136c-2-80 154-74 161-7" id="aJ"/><path d="M101-251c68 0 84 54 84 127C185-50 166 4 99 4S15-52 14-124c-1-75 17-127 87-127zm-1 216c37-5 36-46 36-89s4-89-36-89c-39 0-36 45-36 89 0 43-3 85 36 89" id="aK"/><g id="D"><use transform="matrix(0.04938271604938272,0,0,0.04938271604938272,0,0)" xlink:href="#aF"/><use transform="matrix(0.04938271604938272,0,0,0.04938271604938272,6.913580246913581,0)" xlink:href="#aG"/><use transform="matrix(0.04938271604938272,0,0,0.04938271604938272,16.790123456790127,0)" xlink:href="#aH"/><use transform="matrix(0.04938271604938272,0,0,0.04938271604938272,26.666666666666668,0)" xlink:href="#aI"/><use transform="matrix(0.04938271604938272,0,0,0.04938271604938272,31.60493827160494,0)" xlink:href="#aJ"/><use transform="matrix(0.04938271604938272,0,0,0.04938271604938272,41.48148148148149,0)" xlink:href="#aK"/></g><path d="M15-148v-39h180v39H15zm0 97v-39h180v39H15" id="aL"/><use transform="matrix(0.04938271604938272,0,0,0.04938271604938272,0,0)" xlink:href="#aL" id="E"/><path d="M62-158H24l-5-90h48" id="aM"/><g id="F"><use transform="matrix(0.04938271604938272,0,0,0.04938271604938272,0,0)" xlink:href="#aM"/><use transform="matrix(0.04938271604938272,0,0,0.04938271604938272,4.197530864197531,0)" xlink:href="#aG"/><use transform="matrix(0.04938271604938272,0,0,0.04938271604938272,14.074074074074074,0)" xlink:href="#aM"/></g><path d="M182-182c0 78-84 86-111 141h115V0H12c-6-101 99-100 120-180 1-22-12-31-33-32-23 0-32 14-35 34l-49-3c5-45 32-70 84-70 51 0 83 22 83 69" id="aN"/><g id="G"><use transform="matrix(0.04938271604938272,0,0,0.04938271604938272,0,0)" xlink:href="#aF"/><use transform="matrix(0.04938271604938272,0,0,0.04938271604938272,6.913580246913581,0)" xlink:href="#aN"/><use transform="matrix(0.04938271604938272,0,0,0.04938271604938272,16.790123456790127,0)" xlink:href="#aH"/><use transform="matrix(0.04938271604938272,0,0,0.04938271604938272,26.666666666666668,0)" xlink:href="#aI"/><use transform="matrix(0.04938271604938272,0,0,0.04938271604938272,31.60493827160494,0)" xlink:href="#aJ"/><use transform="matrix(0.04938271604938272,0,0,0.04938271604938272,41.48148148148149,0)" xlink:href="#aK"/></g><use transform="matrix(0.04938271604938272,0,0,0.04938271604938272,0,0)" xlink:href="#aL" id="H"/><g id="I"><use transform="matrix(0.04938271604938272,0,0,0.04938271604938272,0,0)" xlink:href="#aM"/><use transform="matrix(0.04938271604938272,0,0,0.04938271604938272,4.197530864197531,0)" xlink:href="#aK"/><use transform="matrix(0.04938271604938272,0,0,0.04938271604938272,14.074074074074074,0)" xlink:href="#aM"/></g><path d="M64 0c3-98 48-159 88-221H18v-27h164v26C143-157 98-101 97 0H64" id="aO"/><g id="J"><use transform="matrix(0.06172839506172839,0,0,0.06172839506172839,0,0)" xlink:href="#X"/><use transform="matrix(0.06172839506172839,0,0,0.06172839506172839,14.814814814814813,0)" xlink:href="#aO"/></g><g id="K"><use transform="matrix(0.06172839506172839,0,0,0.06172839506172839,0,0)" xlink:href="#ar"/><use transform="matrix(0.06172839506172839,0,0,0.06172839506172839,7.345679012345679,0)" xlink:href="#aA"/><use transform="matrix(0.06172839506172839,0,0,0.06172839506172839,19.691358024691358,0)" xlink:href="#al"/><use transform="matrix(0.06172839506172839,0,0,0.06172839506172839,32.03703703703704,0)" xlink:href="#at"/><use transform="matrix(0.06172839506172839,0,0,0.06172839506172839,36.91358024691358,0)" xlink:href="#ak"/><use transform="matrix(0.06172839506172839,0,0,0.06172839506172839,49.25925925925926,0)" xlink:href="#au"/><use transform="matrix(0.06172839506172839,0,0,0.06172839506172839,61.60493827160494,0)" xlink:href="#av"/></g><path d="M206 0h-36l-40-164L89 0H53L-1-190h32L70-26l43-164h34l41 164 42-164h31" id="aP"/><path d="M24-231v-30h32v30H24zM24 0v-190h32V0H24" id="aQ"/><path d="M59-47c-2 24 18 29 38 22v24C64 9 27 4 27-40v-127H5v-23h24l9-43h21v43h35v23H59v120" id="aR"/><g id="L"><use transform="matrix(0.06172839506172839,0,0,0.06172839506172839,0,0)" xlink:href="#aP"/><use transform="matrix(0.06172839506172839,0,0,0.06172839506172839,15.987654320987653,0)" xlink:href="#ar"/><use transform="matrix(0.06172839506172839,0,0,0.06172839506172839,23.333333333333332,0)" xlink:href="#aQ"/><use transform="matrix(0.06172839506172839,0,0,0.06172839506172839,28.209876543209873,0)" xlink:href="#aR"/><use transform="matrix(0.06172839506172839,0,0,0.06172839506172839,34.382716049382715,0)" xlink:href="#an"/><use transform="matrix(0.06172839506172839,0,0,0.06172839506172839,46.72839506172839,0)" xlink:href="#al"/><use transform="matrix(0.06172839506172839,0,0,0.06172839506172839,59.07407407407407,0)" xlink:href="#aw"/><use transform="matrix(0.06172839506172839,0,0,0.06172839506172839,70.18518518518518,0)" xlink:href="#an"/><use transform="matrix(0.06172839506172839,0,0,0.06172839506172839,82.53086419753086,0)" xlink:href="#at"/></g><g id="M"><use transform="matrix(0.06172839506172839,0,0,0.06172839506172839,0,0)" xlink:href="#aq"/><use transform="matrix(0.06172839506172839,0,0,0.06172839506172839,4.197530864197531,0)" xlink:href="#Y"/><use transform="matrix(0.06172839506172839,0,0,0.06172839506172839,16.54320987654321,0)" xlink:href="#aq"/></g><g id="N"><use transform="matrix(0.06172839506172839,0,0,0.06172839506172839,0,0)" xlink:href="#ak"/><use transform="matrix(0.06172839506172839,0,0,0.06172839506172839,12.345679012345679,0)" xlink:href="#al"/><use transform="matrix(0.06172839506172839,0,0,0.06172839506172839,24.691358024691358,0)" xlink:href="#am"/><use transform="matrix(0.06172839506172839,0,0,0.06172839506172839,43.148148148148145,0)" xlink:href="#an"/><use transform="matrix(0.06172839506172839,0,0,0.06172839506172839,55.49382716049382,0)" xlink:href="#am"/><use transform="matrix(0.06172839506172839,0,0,0.06172839506172839,73.9506172839506,0)" xlink:href="#al"/><use transform="matrix(0.06172839506172839,0,0,0.06172839506172839,86.29629629629629,0)" xlink:href="#aP"/><use transform="matrix(0.06172839506172839,0,0,0.06172839506172839,102.28395061728395,0)" xlink:href="#an"/></g><path d="M134-131c28 9 52 24 51 62-1 50-34 73-85 73S17-19 16-69c0-36 21-54 49-61-75-25-45-126 34-121 46 3 78 18 79 63 0 33-17 51-44 57zm-34-11c31 1 46-15 46-44 0-28-17-43-47-42-29 0-46 13-45 42 1 28 16 44 46 44zm1 122c35 0 51-18 51-52 0-30-18-46-53-46-33 0-51 17-51 47 0 34 19 51 53 51" id="aS"/><g id="O"><use transform="matrix(0.06172839506172839,0,0,0.06172839506172839,0,0)" xlink:href="#X"/><use transform="matrix(0.06172839506172839,0,0,0.06172839506172839,14.814814814814813,0)" xlink:href="#aS"/></g><g id="P"><use transform="matrix(0.06172839506172839,0,0,0.06172839506172839,0,0)" xlink:href="#ax"/><use transform="matrix(0.06172839506172839,0,0,0.06172839506172839,7.8395061728395055,0)" xlink:href="#ai"/><use transform="matrix(0.06172839506172839,0,0,0.06172839506172839,18.51851851851852,0)" xlink:href="#ai"/><use transform="matrix(0.06172839506172839,0,0,0.06172839506172839,30.864197530864196,0)" xlink:href="#ax"/></g><g id="Q"><use transform="matrix(0.06172839506172839,0,0,0.06172839506172839,0,0)" xlink:href="#X"/><use transform="matrix(0.06172839506172839,0,0,0.06172839506172839,14.814814814814813,0)" xlink:href="#ai"/><use transform="matrix(0.06172839506172839,0,0,0.06172839506172839,27.160493827160494,0)" xlink:href="#Y"/></g><g id="R"><use transform="matrix(0.06172839506172839,0,0,0.06172839506172839,0,0)" xlink:href="#X"/><use transform="matrix(0.06172839506172839,0,0,0.06172839506172839,14.814814814814813,0)" xlink:href="#ai"/><use transform="matrix(0.06172839506172839,0,0,0.06172839506172839,25.493827160493826,0)" xlink:href="#ai"/></g><g id="S"><use transform="matrix(0.06172839506172839,0,0,0.06172839506172839,0,0)" xlink:href="#X"/><use transform="matrix(0.06172839506172839,0,0,0.06172839506172839,14.814814814814813,0)" xlink:href="#ai"/><use transform="matrix(0.06172839506172839,0,0,0.06172839506172839,27.160493827160494,0)" xlink:href="#aj"/></g><path fill="#333" d="M147 0L96-86 75-71V0H25v-261h50v150l67-79h53l-66 74L201 0h-54" id="aT"/><g id="T"><use transform="matrix(0.04938271604938272,0,0,0.04938271604938272,0,0)" xlink:href="#aT"/><use transform="matrix(0.04938271604938272,0,0,0.04938271604938272,9.876543209876544,0)" xlink:href="#aa"/><use transform="matrix(0.04938271604938272,0,0,0.04938271604938272,19.75308641975309,0)" xlink:href="#Z"/><use transform="matrix(0.04938271604938272,0,0,0.04938271604938272,24.69135802469136,0)" xlink:href="#ab"/><use transform="matrix(0.04938271604938272,0,0,0.04938271604938272,34.567901234567906,0)" xlink:href="#ah"/></g><g id="U"><use transform="matrix(0.06172839506172839,0,0,0.06172839506172839,0,0)" xlink:href="#X"/><use transform="matrix(0.06172839506172839,0,0,0.06172839506172839,14.814814814814813,0)" xlink:href="#ai"/><use transform="matrix(0.06172839506172839,0,0,0.06172839506172839,27.160493827160494,0)" xlink:href="#aA"/></g><path d="M115-3C79 11 28 4 28-45v-112H4v-33h27l15-45h31v45h36v33H77v99c-1 23 16 31 38 25v30" id="aU"/><path d="M133-34C117-15 103 5 69 4 32 3 11-16 11-54c-1-60 55-63 116-61 1-26-3-47-28-47-18 1-26 9-28 27l-52-2c7-38 36-58 82-57s74 22 75 68l1 82c-1 14 12 18 25 15v27c-30 8-71 5-69-32zm-48 3c29 0 43-24 42-57-32 0-66-3-65 30 0 17 8 27 23 27" id="aV"/><g id="V"><use transform="matrix(0.04938271604938272,0,0,0.04938271604938272,0,0)" xlink:href="#aI"/><use transform="matrix(0.04938271604938272,0,0,0.04938271604938272,4.938271604938272,0)" xlink:href="#aH"/><use transform="matrix(0.04938271604938272,0,0,0.04938271604938272,14.814814814814817,0)" xlink:href="#aJ"/><use transform="matrix(0.04938271604938272,0,0,0.04938271604938272,24.69135802469136,0)" xlink:href="#aU"/><use transform="matrix(0.04938271604938272,0,0,0.04938271604938272,30.567901234567906,0)" xlink:href="#aV"/><use transform="matrix(0.04938271604938272,0,0,0.04938271604938272,40.44444444444445,0)" xlink:href="#aF"/><use transform="matrix(0.04938271604938272,0,0,0.04938271604938272,47.35802469135803,0)" xlink:href="#aU"/></g><g id="W"><use transform="matrix(0.06172839506172839,0,0,0.06172839506172839,0,0)" xlink:href="#ak"/><use transform="matrix(0.06172839506172839,0,0,0.06172839506172839,12.345679012345679,0)" xlink:href="#al"/><use transform="matrix(0.06172839506172839,0,0,0.06172839506172839,24.691358024691358,0)" xlink:href="#av"/><use transform="matrix(0.06172839506172839,0,0,0.06172839506172839,37.03703703703704,0)" xlink:href="#ak"/><use transform="matrix(0.06172839506172839,0,0,0.06172839506172839,49.382716049382715,0)" xlink:href="#ao"/><use transform="matrix(0.06172839506172839,0,0,0.06172839506172839,61.72839506172839,0)" xlink:href="#an"/></g></defs></g></svg>